<svg width="27" height="31" viewBox="0 0 27 31" fill="none" xmlns="http://www.w3.org/2000/svg">
<path d="M8.18457 4.92969C8.19003 4.93341 8.20013 4.94008 8.21289 4.95508C8.25249 5.00174 8.29688 5.0929 8.29688 5.21875C8.29688 6.91565 8.52699 8.54872 8.9541 10.0771V10.0781C8.98859 10.2074 8.97188 10.3275 8.93164 10.4141L8.88477 10.4883L6.47852 13.3242L6.07617 13.7979L6.32227 14.3682C7.97227 18.1898 10.6423 21.336 13.9316 23.3223L14.6602 23.7627L15.2109 23.1133L17.6172 20.2773C17.6232 20.2703 17.6294 20.2657 17.6338 20.2617C18.9591 20.7742 20.3894 21.0523 21.8564 21.0547C21.8618 21.0582 21.8722 21.0652 21.8857 21.0811C21.9253 21.1277 21.9697 21.219 21.9697 21.3447V25.8438C21.9697 25.9696 21.9253 26.0608 21.8857 26.1074C21.873 26.1224 21.862 26.128 21.8564 26.1318C12.2943 26.1196 4.28125 16.9233 4.28125 5.21875C4.28125 5.0929 4.32564 5.00174 4.36523 4.95508C4.37794 4.94014 4.38807 4.93345 4.39355 4.92969H8.18457Z" stroke="#F8F5EC" stroke-width="2"/>
</svg>
